<?xml version="1.0" encoding="UTF-8" standalone="no"?>
<svg
   xmlns:dc="http://purl.org/dc/elements/1.1/"
   xmlns:cc="http://creativecommons.org/ns#"
   xmlns:rdf="http://www.w3.org/1999/02/22-rdf-syntax-ns#"
   xmlns:svg="http://www.w3.org/2000/svg"
   xmlns="http://www.w3.org/2000/svg"
   xmlns:sodipodi="http://sodipodi.sourceforge.net/DTD/sodipodi-0.dtd"
   xmlns:inkscape="http://www.inkscape.org/namespaces/inkscape"
   inkscape:version="1.0 (4035a4fb49, 2020-05-01)"
   sodipodi:docname="39305.svg"
   xml:space="preserve"
   style="enable-background:new 0 0 31.5 31.5;"
   viewBox="0 0 31.5 31.5"
   height="31.5px"
   width="31.5px"
   y="0px"
   x="0px"
   id="Capa_1"
   version="1.1"><metadata
   id="metadata126"><rdf:RDF><cc:Work
       rdf:about=""><dc:format>image/svg+xml</dc:format><dc:type
         rdf:resource="http://purl.org/dc/dcmitype/StillImage" /><dc:title></dc:title></cc:Work></rdf:RDF></metadata><defs
   id="defs124" /><sodipodi:namedview
   inkscape:current-layer="g89"
   inkscape:window-maximized="1"
   inkscape:window-y="28"
   inkscape:window-x="0"
   inkscape:cy="15.75"
   inkscape:cx="10.46214"
   inkscape:zoom="25.650794"
   inkscape:pagecheckerboard="false"
   showgrid="false"
   id="namedview122"
   inkscape:window-height="1026"
   inkscape:window-width="1920"
   inkscape:pageshadow="2"
   inkscape:pageopacity="0"
   guidetolerance="10"
   gridtolerance="10"
   objecttolerance="10"
   borderopacity="1"
   bordercolor="#666666"
   pagecolor="#505050" />
<g
   id="g89">
	<path
   style="fill:#ffffff"
   id="path87"
   d="M30,0H1.5C0.671,0,0,0.671,0,1.5V30c0,0.828,0.671,1.5,1.5,1.5H30c0.829,0,1.5-0.672,1.5-1.5V1.5C31.5,0.671,30.829,0,30,0   z M28.5,28.5H3V3h25.5V28.5z M6.741,12.517c-0.296-0.462-0.316-1.048-0.053-1.529s0.768-0.78,1.316-0.78h15.494   c0.549,0,1.053,0.299,1.316,0.78c0.263,0.481,0.242,1.067-0.053,1.529l-7.748,12.084c-0.275,0.43-0.75,0.689-1.264,0.689   c-0.512,0-0.987-0.262-1.263-0.689L6.741,12.517z" />
</g>
<g
   id="g91">
</g>
<g
   id="g93">
</g>
<g
   id="g95">
</g>
<g
   id="g97">
</g>
<g
   id="g99">
</g>
<g
   id="g101">
</g>
<g
   id="g103">
</g>
<g
   id="g105">
</g>
<g
   id="g107">
</g>
<g
   id="g109">
</g>
<g
   id="g111">
</g>
<g
   id="g113">
</g>
<g
   id="g115">
</g>
<g
   id="g117">
</g>
<g
   id="g119">
</g>
</svg>
